<?xml version="1.0" encoding="UTF-8"?>
<!DOCTYPE svg PUBLIC "-//W3C//DTD SVG 1.1//EN" "http://www.w3.org/Graphics/SVG/1.1/DTD/svg11.dtd">
<svg xmlns="http://www.w3.org/2000/svg" version="1.1" width="500px" height="500px" style="shape-rendering:geometricPrecision; text-rendering:geometricPrecision; image-rendering:optimizeQuality; fill-rule:evenodd; clip-rule:evenodd" xmlns:xlink="http://www.w3.org/1999/xlink">
<g><path style="opacity:1" fill="#fefefe" d="M -0.5,-0.5 C 166.167,-0.5 332.833,-0.5 499.5,-0.5C 499.5,166.167 499.5,332.833 499.5,499.5C 332.833,499.5 166.167,499.5 -0.5,499.5C -0.5,332.833 -0.5,166.167 -0.5,-0.5 Z"/></g>
<g><path style="opacity:1" fill="#020202" d="M 296.5,432.5 C 290.491,432.701 284.491,433.034 278.5,433.5C 273.489,433.334 268.489,433.501 263.5,434C 269.303,434.891 274.97,435.725 280.5,436.5C 226.576,436.938 178.743,420.272 137,386.5C 103.26,424.575 67.7604,461.075 30.5,496C 29.552,496.483 28.552,496.649 27.5,496.5C 27.5,494.167 27.5,491.833 27.5,489.5C 26.5,489.5 25.5,489.5 24.5,489.5C 24.2229,486.552 24.5562,483.719 25.5,481C 21.6665,481.556 20.6665,479.889 22.5,476C 21.6667,475.167 20.8333,474.333 20,473.5C 17.8333,475 16.3333,474.5 15.5,472C 17.7669,469.733 20.1003,467.4 22.5,465C 21.9747,464.308 21.3081,463.808 20.5,463.5C 17.7455,465.01 15.4121,467.01 13.5,469.5C 12.7132,468.758 12.0465,467.925 11.5,467C 14.0366,464.128 16.8699,461.628 20,459.5C 20.2812,457.095 19.6146,457.095 18,459.5C 17.6848,458.092 18.0181,456.759 19,455.5C 32.2492,441.249 45.9159,427.249 60,413.5C 71.5475,396.95 84.8808,381.95 100,368.5C 102.171,371.72 105.004,372.386 108.5,370.5C 110.593,370.486 112.426,371.152 114,372.5C 114.667,373.5 114.667,374.5 114,375.5C 106.089,385.589 107.422,386.922 118,379.5C 120.266,380.707 122.099,382.374 123.5,384.5C 125.359,382.808 127.359,381.308 129.5,380C 79.3238,332.093 56.4905,273.259 61,203.5C 68.7275,136.187 99.5608,82.3536 153.5,42C 214.795,1.29792 280.461,-7.36875 350.5,16C 420.268,43.2684 465.935,92.7684 487.5,164.5C 487.333,165.167 487.167,165.833 487,166.5C 485.667,165.167 484.333,163.833 483,162.5C 484.796,174.204 485.962,186.037 486.5,198C 486.677,203.659 485.844,209.159 484,214.5C 483.082,216.632 481.749,217.299 480,216.5C 478.205,185.322 469.872,155.988 455,128.5C 460.226,142.515 464.893,156.848 469,171.5C 471.648,180.807 473.148,190.307 473.5,200C 473.636,203.052 472.969,205.886 471.5,208.5C 470.061,206.64 468.395,204.973 466.5,203.5C 465.883,219.189 465.05,234.856 464,250.5C 463.581,251.672 462.915,252.672 462,253.5C 461.457,251.369 460.624,249.369 459.5,247.5C 452.26,287.816 434.593,322.649 406.5,352C 405.167,352.667 403.833,352.667 402.5,352C 445.207,305.2 461.707,250.367 452,187.5C 435.072,117.907 392.572,72.0737 324.5,50C 245.293,31.9541 180.793,54.7875 131,118.5C 94.5723,173.268 88.5723,231.268 113,292.5C 139.694,349.437 183.86,384.27 245.5,397C 303.797,405.229 354.797,389.895 398.5,351C 400.055,349.711 401.721,349.044 403.5,349C 396.871,357.963 389.205,365.963 380.5,373C 384.718,371.8 388.551,369.634 392,366.5C 389.468,372.069 385.635,376.902 380.5,381C 375.009,385.246 369.342,389.246 363.5,393C 366.612,392.457 369.612,391.29 372.5,389.5C 372.833,389.833 373.167,390.167 373.5,390.5C 372.469,391.7 371.635,393.034 371,394.5C 365.642,397.515 360.142,400.349 354.5,403C 351.518,404.335 351.018,406.168 353,408.5C 359.791,405.438 366.457,402.105 373,398.5C 376.5,400.667 376.333,402.5 372.5,404C 348.637,416.454 323.304,423.954 296.5,426.5C 296.5,427.5 296.5,428.5 296.5,429.5C 322.636,427.132 347.303,419.799 370.5,407.5C 370.833,407.667 371.167,407.833 371.5,408C 368.785,408.875 367.452,410.708 367.5,413.5C 344.904,423.733 321.237,430.066 296.5,432.5 Z"/></g>
<g><path style="opacity:1" fill="#cecece" d="M 130.5,381.5 C 131.289,381.783 131.956,382.283 132.5,383C 131.184,383.528 130.517,383.028 130.5,381.5 Z"/></g>
<g><path style="opacity:1" fill="#989898" d="M 296.5,432.5 C 295.105,434.379 293.105,435.379 290.5,435.5C 286.5,434.833 282.5,434.167 278.5,433.5C 284.491,433.034 290.491,432.701 296.5,432.5 Z"/></g>
<g><path style="opacity:1" fill="#3a3a3a" d="M 278.5,433.5 C 282.5,434.167 286.5,434.833 290.5,435.5C 287.098,435.342 283.764,435.676 280.5,436.5C 274.97,435.725 269.303,434.891 263.5,434C 268.489,433.501 273.489,433.334 278.5,433.5 Z"/></g>
</svg>
