<?xml version="1.0" standalone="no"?>
<!DOCTYPE svg PUBLIC "-//W3C//DTD SVG 20010904//EN"
 "http://www.w3.org/TR/2001/REC-SVG-20010904/DTD/svg10.dtd">
<svg version="1.0" xmlns="http://www.w3.org/2000/svg"
 width="500.000000pt" height="500.000000pt" viewBox="0 0 500.000000 500.000000"
 preserveAspectRatio="xMidYMid meet">

<g transform="translate(0.000000,500.000000) scale(0.100000,-0.100000)"
fill="#000000" stroke="none">
<path d="M2505 4945 c-222 -32 -385 -76 -565 -152 -400 -171 -713 -434 -960
-805 -204 -307 -319 -623 -361 -988 -15 -132 -6 -451 16 -580 76 -449 277
-838 595 -1157 56 -57 99 -103 95 -103 -4 0 -14 8 -21 18 -12 16 -14 15 -39
-8 l-27 -25 -20 28 c-24 34 -32 34 -80 1 -21 -15 -41 -24 -44 -21 -4 3 8 25
25 49 17 23 31 48 31 55 0 21 -40 36 -82 30 -28 -4 -41 -1 -45 9 -3 8 -11 14
-18 14 -18 0 -268 -270 -341 -368 -32 -42 -127 -149 -212 -237 -251 -260 -272
-283 -272 -295 0 -9 5 -9 17 1 17 13 17 13 3 -5 -8 -11 -30 -34 -48 -50 -24
-23 -30 -35 -22 -46 8 -13 14 -10 39 18 30 33 42 38 55 25 4 -4 -11 -24 -33
-43 -37 -32 -39 -37 -26 -54 11 -15 18 -16 28 -8 19 16 39 -5 27 -28 -10 -19
11 -47 27 -37 4 3 6 -15 4 -39 -3 -38 0 -44 16 -44 16 0 18 -6 15 -35 -3 -28
-1 -35 13 -35 22 0 583 561 860 860 115 124 212 226 216 228 4 2 44 -24 88
-57 352 -261 846 -432 1240 -430 75 0 156 4 181 8 45 8 44 9 -25 12 l-70 3 60
3 c92 5 290 32 390 54 172 38 445 138 445 164 0 7 12 23 28 35 15 12 -7 4 -53
-18 -111 -55 -282 -117 -400 -146 -110 -27 -262 -49 -276 -40 -20 12 5 22 83
34 112 16 263 52 378 91 101 33 320 134 320 147 0 4 -4 13 -8 20 -7 9 -34 1
-113 -37 -88 -43 -105 -48 -112 -35 -11 19 -19 13 90 67 57 29 99 58 113 77
12 16 16 30 10 30 -6 0 -51 -20 -100 -45 -50 -25 -90 -43 -90 -40 0 2 24 17
53 31 83 42 211 139 271 206 31 34 56 65 56 70 0 5 -24 -7 -52 -27 -29 -19
-56 -35 -59 -35 -4 0 40 47 96 103 97 98 136 147 118 147 -5 0 -53 -37 -108
-82 -191 -155 -363 -253 -576 -326 -371 -128 -754 -133 -1123 -16 -144 46
-366 156 -486 241 -123 88 -336 302 -422 423 -228 323 -339 697 -324 1095 27
743 506 1385 1208 1620 331 110 669 122 1014 35 743 -187 1290 -853 1333
-1619 18 -332 -38 -619 -178 -906 -69 -140 -134 -240 -254 -388 -88 -108 -101
-131 -69 -120 74 26 290 326 389 540 53 115 107 275 133 388 30 134 31 136 42
96 24 -89 49 40 52 279 2 102 4 187 5 190 1 3 15 -11 30 -30 l29 -35 7 39 c21
112 -43 397 -158 699 -15 37 -24 67 -22 67 3 0 23 -37 46 -82 53 -105 110
-266 138 -388 12 -52 27 -117 33 -145 7 -27 17 -97 22 -154 12 -117 26 -136
54 -74 22 50 22 281 -2 398 -9 44 -16 89 -16 99 0 18 2 18 26 -5 l26 -24 -7
35 c-4 19 -23 80 -42 135 -241 694 -822 1226 -1528 1401 -182 45 -272 56 -490
59 -146 3 -240 0 -310 -10z"/>
</g>
</svg>
